# xmcd
#
# Track frame offsets: 
#        150
#        15360
#        23410
#
# Disc length: 601 seconds
#
# Revision: 0
# Processed by: cddbd v1.5.2PL0 Copyright (c) Steve Scherf et al.
# Submitted via: ExactAudioCopy v0.99pb3
#
DISCID=0e025703
DTITLE=Seafood - Easy Path
DYEAR=1999
DGENRE=Fierce Panda
TTITLE0=Easy Path
TTITLE1=Duck And Cover (4 track demo)
TTITLE2=Walking In The Air (Evil Aled live session)
EXTD=
EXTT0=
EXTT1=
EXTT2=
PLAYORDER=
